<svg xmlns="http://www.w3.org/2000/svg" viewBox="0 0 128 128"><linearGradient id="a" x1="61.8" x2="61.8" y1="3.4" y2="117.7" gradientUnits="userSpaceOnUse"><stop offset="0" stop-color="#9e9e9e"/><stop offset="1" stop-color="#616161"/></linearGradient><path fill="url(#a)" d="M96 98a6 6 0 0 1-1-3l-3-12V9c0-3-2-5-4-5h-1C75 4 49 7 42 30c0 0 0 4 5 9 0 0-9 8-14 29v2c-1 5-4 25-7 34-1 2 0 5 3 6l18 2-3 8c-1 2-2 5 14 4l7-2c12-3 24-9 28-12a13 13 0 0 0 5-6c1-2 0-4-2-6z"/><linearGradient id="b" x1="46.8" x2="73.2" y1="102.8" y2="102.8" gradientUnits="userSpaceOnUse"><stop offset="0" stop-color="#9e9e9e"/><stop offset="1" stop-color="#616161"/></linearGradient><path fill="url(#b)" d="m74 82-13 8c-10 8-17 29-17 30-1 2-2 5 14 4l7-2c2-10 13-27 21-38-3-2-8-3-12-2z"/><path fill="#616161" d="M96 98a6 6 0 0 1-1-3c-3-12-2-19-7-14l-2 3c-8 11-19 28-21 38 12-3 24-9 28-12a13 13 0 0 0 5-6c1-2 0-4-2-6z"/><radialGradient id="c" cx="58.4" cy="102.8" r="15.5" gradientTransform="matrix(.2245 .9745 -2.4854 .5725 301 -13)" gradientUnits="userSpaceOnUse"><stop offset="0" stop-color="#616161"/><stop offset="1" stop-color="#616161" stop-opacity="0"/></radialGradient><path fill="url(#c)" d="M96 98a6 6 0 0 1-1-3c-3-12-2-19-7-14l-2 3c-3-2-8-3-12-2l-13 8c-10 8-17 29-17 30-1 2-2 5 14 4l7-2c12-3 24-9 28-12a13 13 0 0 0 5-6c1-2 0-4-2-6z" opacity=".7"/><linearGradient id="d" x1="58.9" x2="58.9" y1="-7.1" y2="113.5" gradientUnits="userSpaceOnUse"><stop offset="0" stop-color="#e0e0e0"/><stop offset="1" stop-color="#9e9e9e"/></linearGradient><path fill="url(#d)" d="M87 4C75 4 49 7 42 30c0 0 0 4 5 9 0 0-9 8-14 29v2c-1 5-4 25-7 34-1 2 0 5 3 6l18 2c13 0 45-9 45-22V9c0-3-2-5-5-5z"/><path fill="#616161" d="M88 5s14-4 14 17v42c1 4 0 14-14 14V5z"/><radialGradient id="e" cx="90.9" cy="46.5" r="6.3" gradientTransform="matrix(1 0 0 5.4357 0 -206)" gradientUnits="userSpaceOnUse"><stop offset="0" stop-color="#616161"/><stop offset="1" stop-color="#616161" stop-opacity="0"/></radialGradient><path fill="url(#e)" d="M92 14s5-4 5 15v35c1 3 1 14-5 14V14z" opacity=".7"/><linearGradient id="f" x1="73.4" x2="73.4" y1="3.5" y2="105.7" gradientUnits="userSpaceOnUse"><stop offset="0" stop-color="#9e9e9e"/><stop offset="1" stop-color="#616161"/></linearGradient><path fill="url(#f)" d="M85 4c-3 3-3 12 0 20 2 6 3 12 2 18-2 19-8 54-33 69 16-2 38-9 38-20V9c0-3-2-5-4-5h-3z"/><linearGradient id="g" x1="54" x2="65" y1="13.2" y2="33.2" gradientUnits="userSpaceOnUse"><stop offset="0" stop-color="#9e9e9e"/><stop offset="1" stop-color="#616161"/></linearGradient><path fill="url(#g)" d="M84 28s-7-6-15-7c-19-2-27 10-27 10s0 4 4 8h3c16 1 29-4 35-7 2 0 2-3 0-4z"/><path fill="#bdbdbd" d="M40 81c-1 1-1 0 0 0l16-15c1 0-14-5-21-5l-2 6v4a2232 2232 0 0 1-7 32c6-4 10-9 11-14l5-2 14-2v-1c-3-2-9-4-16-3z"/><path fill="#424242" d="M87 7h1a3 3 0 0 0 2 1h1c7 0 8 8 8 14v42c1 6-2 10-7 11-2 0-3 1-3 3v5l1 3 2 10 2 4 1 3v1l-4 4a97 97 0 0 1-34 13 60 60 0 0 1-10 0v-1l3-7a3 3 0 0 0-3-4l-17-2-1-1v-1a223 223 0 0 0 8-39l-2-3-2-2 2-2a111 111 0 0 0 7-8c3-7 7-10 7-10a3 3 0 0 0 0-4c-3-3-4-6-4-7C52 9 77 7 87 7m0-3C75 4 49 7 42 30c0 0 0 4 5 9 0 0-4 3-8 11l-6 6c-4 5-3 7 1 9a74 74 0 0 0-1 5c-1 5-4 25-7 34-1 2 0 5 3 6l18 2-3 8c-1 1-1 4 7 4a63 63 0 0 0 14-2c12-3 24-9 28-12a13 13 0 0 0 5-6c1-2 0-4-2-6a6 6 0 0 1-1-3l-3-13v-4c10-2 11-10 10-14V22c0-15-7-17-11-17h-2l-2-1z" opacity=".2"/><linearGradient id="h" x1="49.6" x2="49.6" y1="15" y2="63.6" gradientUnits="userSpaceOnUse"><stop offset="0" stop-color="#e0e0e0"/><stop offset="1" stop-color="#9e9e9e"/></linearGradient><path fill="url(#h)" d="M61 27c3 0 7 3 10 10 0 0-12 5-15 16l1 5c2 2 3 5 3 9 0 1 0 2-2 2-8 0-39-3-27-14 0 0 15-9 23-26 1-2 4-3 7-2z"/><linearGradient id="i" x1="32.9" x2="45.8" y1="52.6" y2="66.1" gradientUnits="userSpaceOnUse"><stop offset="0" stop-color="#9e9e9e"/><stop offset="1" stop-color="#616161"/></linearGradient><path fill="url(#i)" d="M29 60c1 8 23 9 30 9l1-1c-5-8-22-9-31-8z"/><path fill="#515151" d="M44 63c2 0 8 1 10 3v1l-5 1c-3 0-5-1-6-3v-1l1-1zm-11-2s2 4 5 6l-4-2c-1 0-2-1-2-3l1-1z"/><g fill="#a1887f"><path d="M54 76h3l2-2h-3c-2 0-3 1-2 2zm6 10 2-2v-2c-1-1-2 0-2 1v3zm-22-8 2-1v-3l-3 2 1 2z" opacity=".2"/><path d="M63 93h4c2-1 3-3 2-3h-4l-2 3zm14-71h3c2-1 2-2 2-3h-3c-2 1-3 2-2 3zM44 59l3-1c1-1 3-1 2-2h-3c-2 1-3 2-2 3zM33 74l3-1c2 0 3-1 3-2h-4l-2 3zm48 21h2l2-2h-3l-1 2zM67 83h3c2 0 3-2 2-2h-3c-2 0-2 2-2 2zm-2-57h3c1-1 2-2 1-3h-2l-2 3zm15 61 2-1 2-2-3 1c-2 1-2 1-1 2zm-37 6h3l2-2-3-1c-2 1-3 2-2 3zm9-74h3l2-2h-3l-2 2zm34 24v2l3 2-1-3-2-1z" opacity=".1"/><path d="M73 74h5c2 0 3-1 3-2l-4-1-4 3zM47 99l3 1 3-1-3-1-3 1zm25 5h3l2-2h-3l-2 2zm-7 10h4l2-2h-3l-3 2zm2-41 3-2 1-3-4 2c-2 2-1 2 0 3zm-27-4 1 3 3 2-1-4-3-1z" opacity=".2"/><ellipse cx="40.3" cy="97.8" opacity=".1" rx="2.6" ry="1.3"/><path d="M47 106c0 1 1 2 4 2h4l-3-3c-2-1-5 0-5 1zm8-11 3 1 3-1-3-2-3 2zm-3 27 3 1 3-1-3-1c-2-1-3 0-3 1zm-17-16h2c1-1 2-1 1-2h-2l-1 2zm46-59 1 4c0 1 1 2 2 1v-3l-3-2zm-21 3 1 2c1 1 2 2 3 1l-1-2c-1-1-2-2-3-1z" opacity=".2"/><path d="m69 43-1 3 2 3c1 0 2-1 1-3 0-2-1-3-2-3zm9-4-1 3c0 2 1 3 2 3l1-3c0-2-1-3-2-3zM57 29c-1 0-2 1-1 3 0 2 1 3 2 3l1-3-2-3zm14-13-2 1-1 3 3-2v-2zM47 47l-1 3c0 2 1 2 2 2l1-3-2-2zm19 11c-1 0-2 1-1 3l2 3 1-3c0-2-1-3-2-3zM32 89v3l2 1v-2l-2-2zm18-49 1 3 3 1-1-3-3-1z" opacity=".1"/><path d="m63 34-2 2v3l2-2v-3zm-14-4c1-1 0-1-1-1l-3 1 1 1 3-1zm28 30v4l2 2v-4l-2-2z" opacity=".2"/><path d="m63 13-2 2 2 3 1-3-1-2z" opacity=".1"/><path d="m78 49-2 2 1 3c1 0 2-1 2-3l-1-2zm-1 62 1 3h2v-2l-3-1zm-21 3-2 2 1 1 1-1v-2z" opacity=".2"/><path d="m85 101-1 4c0 2 1 3 2 3l1-3-2-4zm-36 13c-1 0-2 2-1 3l2 3 1-3c0-2-1-3-2-3z" opacity=".1"/><path d="m59 112 1 4 2 1v-3l-3-2zm34-12-2 3 1 3c1 0 2-1 2-3l-1-3z" opacity=".2"/><path d="m87 60 1 3 2 2v-3l-3-2z" opacity=".1"/><path d="m84 70 1 3 2 2v-3c-1-2-2-2-3-2zM72 28v3c1 1 2 2 3 1l-1-3c0-1-1-2-2-1z" opacity=".2"/><path d="m89 7-1 3c0 1 1 4 2 3 1 0 2-1 1-3l-2-3z" opacity=".1"/><path d="M96 48v3l3 2v-4c-1-1-2-2-3-1zm-1 20 1 3c0 2 2 2 2 2v-3c-1-2-2-2-3-2zm-6-51-2 2c-1 1 1 3 1 3l2-2-1-3zm-7 12-2 2 1 2 1-2v-2zM42 51l-3 2v4c1 1 2-1 2-2l1-4zM74 9l1 3 2 3v-4c-1-2-2-3-3-2z" opacity=".2"/></g><linearGradient id="j" x1="43.8" x2="48.2" y1="75.6" y2="90.3" gradientUnits="userSpaceOnUse"><stop offset="0" stop-color="#9e9e9e"/><stop offset="1" stop-color="#616161"/></linearGradient><path fill="url(#j)" d="m61 88-7-3c-6-1-10 1-14 1-5 0-4-3-2-3 2-2 5-3 17 1h1c-1-2-7-4-13-4-15-1-10 9-5 11 7 2 18-2 23-3z"/></svg>